ply
format ascii 1.0
comment Created by Blender 2.79 (sub 0) - www.blender.org, source file: ''
element vertex 656
property float x
property float y
property float z
property float nx
property float ny
property float nz
element face 408
property list uchar uint vertex_indices
end_header
-2.177817 -1.262568 -1.366299 -0.422706 0.906267 0.000000
-2.312624 -1.325445 -0.115546 -0.422706 0.906267 0.000000
-2.177817 -1.262568 -0.408935 -0.422706 0.906267 0.000000
-2.312624 -1.073895 -1.659688 -0.908669 0.000000 0.417517
-2.177817 -1.262568 -1.366299 -0.908669 0.000000 0.417517
-2.177817 -1.106607 -1.366299 -0.908669 0.000000 0.417517
-2.177817 -1.057389 1.229274 -0.656947 -0.720662 -0.221512
-2.177817 -1.106607 1.389400 -0.656947 -0.720662 -0.221512
-2.312624 -0.994511 1.424509 -0.656947 -0.720662 -0.221512
-2.177817 -1.262568 0.432017 -1.000000 -0.000000 -0.000000
-2.177817 -1.262568 1.389400 -1.000000 -0.000000 -0.000000
-2.177817 -1.057389 1.229274 -1.000000 -0.000000 -0.000000
2.338158 -1.022772 1.778621 0.000000 0.955865 0.293806
-2.312624 -0.919508 1.442662 0.000000 0.955865 0.293806
-2.312624 -1.022772 1.778621 0.000000 0.955865 0.293806
2.338158 -0.919508 1.442662 0.000000 0.955865 0.293806
-0.246341 -1.400450 -0.893400 -0.000000 -1.000000 -0.000000
-0.328844 -1.400450 -0.862128 -0.000000 -1.000000 -0.000000
-1.571181 -1.400449 -1.755539 -0.000000 -1.000000 -0.000000
-0.483182 -1.400450 -0.774756 -0.000000 -1.000000 -0.000000
-0.553569 -1.400450 -0.719459 -0.000000 -1.000000 -0.000000
-2.312624 -1.325445 -1.659688 -0.422706 0.906267 0.000000
-2.312624 -1.325445 -0.115546 -1.000000 -0.000000 -0.000000
-2.312624 -1.400450 1.778621 -1.000000 -0.000000 -0.000000
-2.312624 -1.325445 0.138628 -1.000000 -0.000000 -0.000000
-2.312624 -0.994511 -0.115546 -1.000000 -0.000000 -0.000000
-2.177817 -1.106607 1.389400 -1.000000 -0.000000 -0.000000
-2.177817 -1.057389 1.229274 -0.422711 -0.906265 -0.000000
-2.312624 -0.994511 0.138628 -0.422711 -0.906265 -0.000000
-2.177817 -1.057389 0.432017 -0.422711 -0.906265 -0.000000
-2.312624 -0.994511 0.138628 -0.908669 -0.000000 0.417517
-2.177817 -1.262568 0.432017 -0.908669 -0.000000 0.417517
-2.177817 -1.057389 0.432017 -0.908669 -0.000000 0.417517
-2.312624 -1.022772 1.778621 -1.000000 0.000000 0.000000
-2.312624 -1.073896 1.682789 -1.000000 0.000000 0.000000
-2.312624 -0.919508 1.442662 -1.000000 -0.000000 0.000000
-2.312624 -0.994511 1.424509 -1.000000 0.000000 0.000000
-2.312624 -1.325445 1.682789 -1.000000 0.000000 0.000000
-2.177817 -1.262568 0.432017 -0.422706 0.906267 0.000000
-2.312624 -1.325445 0.138628 -0.422706 0.906267 0.000000
-2.312624 -1.325445 1.682789 -0.422706 0.906267 0.000000
-0.862817 -1.400450 -0.172949 -0.000000 -1.000000 -0.000000
-0.875658 -1.400450 -0.081150 -0.000000 -1.000000 -0.000000
-0.161363 -1.400450 -0.915944 -0.000000 -1.000000 -0.000000
0.354463 -1.400450 -0.862128 0.000000 -1.000000 -0.000001
0.271977 -1.400450 -0.893400 0.000000 -1.000000 -0.000001
-1.571181 -1.400449 -1.755539 0.000000 -1.000000 -0.000001
1.596885 -1.400449 -1.755539 0.000000 -1.000000 -0.000000
0.354463 -1.400450 -0.862128 0.000000 -1.000000 -0.000000
0.508818 -1.400450 -0.774756 0.000000 -1.000000 -0.000000
0.433663 -1.400450 -0.822467 0.000000 -1.000000 -0.000000
0.901294 -1.400450 -0.081150 0.000000 -1.000000 -0.000000
0.888436 -1.400450 -0.172949 0.000000 -1.000000 -0.000000
0.901294 -1.400450 0.104233 0.000000 -1.000000 0.000000
0.905590 -1.400450 0.011541 0.000000 -1.000000 0.000000
0.888436 -1.400450 0.196032 0.000000 -1.000000 0.000000
0.579186 -1.400450 -0.719459 0.000000 -1.000000 -0.000000
-2.177817 -1.057389 -1.206173 -1.000000 0.000000 -0.000000
-2.177817 -1.262568 -0.408935 -1.000000 0.000000 -0.000000
-2.177817 -1.057389 -0.408935 -1.000000 0.000000 -0.000000
-2.177817 -1.262568 -1.366299 -1.000000 0.000000 0.000000
-2.177817 -1.106607 -1.366299 -1.000000 -0.000000 0.000000
-0.677322 -1.400450 -0.588374 -0.000000 -1.000000 -0.000000
-0.729509 -1.400450 -0.513835 -0.000000 -1.000000 -0.000000
-2.312624 -1.325445 0.138628 -0.908669 -0.000000 0.417517
-0.618479 -1.400450 -0.657147 -0.000000 -1.000000 -0.000000
-0.408044 -1.400450 -0.822467 -0.000000 -1.000000 -0.000000
-2.177817 -1.106607 1.389400 -0.656947 -0.720664 -0.221504
-2.312624 -1.073896 1.682789 -0.656947 -0.720664 -0.221504
-2.312624 -0.994511 1.424509 -0.656947 -0.720664 -0.221504
-2.177817 -1.106607 1.389400 -0.908669 -0.000000 -0.417517
-2.312624 -1.325445 1.682789 -0.908669 -0.000000 -0.417517
-2.312624 -1.073896 1.682789 -0.908669 -0.000000 -0.417517
-2.177817 -1.057389 0.432017 -1.000000 -0.000000 0.000000
-0.774553 -1.400450 -0.434245 -0.000000 -1.000000 -0.000000
-0.812012 -1.400450 -0.350353 -0.000000 -1.000000 -0.000000
-2.177817 -1.262568 1.389400 -0.422706 0.906267 0.000000
-2.312624 -0.994511 1.424509 -0.422711 -0.906265 -0.000000
-0.841518 -1.400450 -0.262963 -0.000000 -1.000000 -0.000000
0.012809 -1.400450 -0.934114 -0.000000 -1.000000 -0.000000
-0.074697 -1.400450 -0.929563 -0.000000 -1.000000 -0.000000
0.100316 -1.400450 -0.929563 0.000000 -1.000000 -0.000000
0.186980 -1.400450 -0.915944 0.000000 -1.000000 -0.000000
-2.312624 -1.325445 -1.659688 -0.908669 0.000000 0.417517
-2.177817 -1.262568 1.389400 -0.908669 0.000000 -0.417517
0.644096 -1.400450 -0.657147 0.000000 -1.000000 -0.000000
-0.879972 -1.400450 0.011541 -0.000000 -1.000000 -0.000000
0.271977 -1.400450 -0.893400 0.000000 -1.000000 -0.000000
-2.312624 -0.994511 0.138628 -1.000000 0.000000 -0.000000
-2.312624 -1.325445 -1.659688 -1.000000 -0.000000 -0.000000
1.596885 -1.204889 1.778621 -1.000000 -0.000000 -0.000000
1.596885 -1.400450 2.046361 -1.000000 -0.000000 -0.000000
1.596885 -1.204889 2.046361 -1.000000 -0.000000 -0.000000
2.085393 -1.204889 1.778621 0.000000 0.000000 -1.000000
2.085393 -1.400450 1.778621 0.000000 0.000000 -1.000000
1.596885 -1.204889 1.778621 0.000000 0.000000 -1.000000
2.338158 -0.919507 -1.419580 0.000000 0.955865 -0.293806
-2.312624 -1.022772 -1.755539 0.000000 0.955865 -0.293806
-2.312624 -0.919507 -1.419580 0.000000 0.955865 -0.293806
2.338158 -1.022772 -1.755539 0.000000 0.955865 -0.293806
1.596885 -1.400450 1.778621 -1.000000 -0.000000 -0.000000
2.085393 -1.400450 1.778621 -0.000000 -1.000000 0.000000
1.596885 -1.400449 -2.023278 -0.000000 -1.000000 0.000000
1.596885 -1.400450 1.778621 0.000000 -1.000000 -0.000000
1.596885 -1.400450 2.046361 -0.000000 -1.000000 -0.000000
2.338158 -1.400450 1.778621 -0.000000 -1.000000 -0.000000
2.085393 -1.400449 -1.755539 -0.000000 -1.000000 -0.000000
2.338158 -1.400449 -1.755539 -0.000000 -1.000000 -0.000000
2.085393 -1.204889 1.778621 0.000000 1.000000 0.000000
1.596885 -1.204889 2.046361 0.000000 1.000000 0.000000
2.085393 -1.204889 2.046361 0.000000 1.000000 0.000000
-2.312624 -1.022772 -1.755539 0.000000 0.000000 -1.000000
-2.059859 -1.400449 -1.755539 0.000000 0.000000 -1.000000
-2.312624 -1.400449 -1.755539 0.000000 0.000000 -1.000000
-2.059859 -1.204889 -1.755539 -0.000000 -0.000000 -1.000000
-1.571181 -1.204889 -1.755539 -0.000000 -0.000000 -1.000000
1.596885 -1.204889 -1.755539 -0.000000 -0.000000 -1.000000
2.085393 -1.204889 -1.755539 -0.000000 -0.000000 -1.000000
2.338158 -1.400449 -1.755539 0.000000 0.000000 -1.000000
2.085393 -1.400449 -1.755539 0.000000 0.000000 -1.000000
2.338158 -1.022772 -1.755539 0.000000 -0.000000 -1.000000
1.596885 -1.400449 -1.755539 0.000000 0.000000 -1.000000
-1.571181 -1.400449 -1.755539 0.000000 0.000000 -1.000000
1.596885 -1.204889 1.778621 0.000000 0.000000 1.000000
2.085393 -1.400450 1.778621 0.000000 0.000000 1.000000
2.338158 -1.400450 1.778621 0.000000 0.000000 1.000000
2.085393 -1.400449 -2.023278 0.000000 -1.000000 -0.000000
2.085393 -1.400450 1.778621 1.000000 0.000000 0.000000
2.085393 -1.400449 -2.023278 1.000000 0.000000 0.000000
2.085393 -1.400449 -1.755539 1.000000 0.000000 0.000000
-2.312624 -1.022772 -1.755539 -1.000000 -0.000000 -0.000000
-2.312624 -1.073895 -1.659688 -1.000000 -0.000000 -0.000000
-2.312624 -1.400449 -1.755539 -1.000000 -0.000000 0.000000
-2.059859 -1.400449 -1.755539 0.000000 -1.000000 -0.000000
-2.312624 -1.400450 1.778621 0.000000 -1.000000 -0.000000
-2.312624 -1.400449 -1.755539 0.000000 -1.000000 -0.000000
-2.059859 -1.400450 1.778621 0.000000 -1.000000 -0.000000
-1.571181 -1.400449 -2.023278 0.000000 -1.000000 0.000000
-2.059859 -1.400449 -2.023278 0.000000 -1.000000 0.000000
-2.059859 -1.400450 1.778621 -0.000003 -1.000000 -0.000000
-1.571181 -1.400449 -2.023278 -0.000003 -1.000000 -0.000000
-2.059859 -1.400450 2.046361 -0.000003 -1.000000 -0.000000
-1.571181 -1.400450 1.778621 0.000000 -1.000000 -0.000000
-2.059859 -1.400450 2.046361 0.000000 -1.000000 -0.000000
-1.571181 -1.400450 1.778621 1.000000 0.000000 0.000000
-1.571181 -1.400449 -2.023278 1.000000 0.000000 0.000000
-1.571181 -1.400449 -1.755539 1.000000 0.000000 0.000000
-2.312624 -0.919507 -1.419580 -1.000000 0.000000 -0.000000
-1.571181 -1.400450 2.046361 0.000000 -1.000000 -0.000000
-1.571181 -1.204889 1.778621 1.000000 -0.000000 0.000000
-1.571181 -1.204889 2.046361 1.000000 -0.000000 0.000000
1.596885 -1.204889 1.778621 -0.000000 1.000000 0.000000
2.338158 -1.022772 1.778621 0.000000 -0.000000 1.000000
0.901294 -0.919507 -0.081150 -0.998927 -0.000000 0.046304
0.905590 -1.400450 0.011541 -0.998927 -0.000000 0.046304
0.905590 -0.919507 0.011541 -0.998927 -0.000000 0.046304
0.888436 -0.919507 -0.172949 -0.990333 -0.000000 0.138707
0.901294 -1.400450 -0.081150 -0.990333 -0.000000 0.138707
0.901294 -0.919507 -0.081150 -0.990333 -0.000000 0.138707
0.867136 -1.400450 -0.262963 -0.973126 -0.000000 0.230274
0.888436 -1.400450 -0.172949 -0.973126 -0.000000 0.230274
0.867136 -0.919507 -0.262963 -0.973126 -0.000000 0.230274
-0.774553 -1.400450 0.457327 0.000000 -1.000000 -0.000000
-0.812012 -1.400450 0.373436 0.000000 -1.000000 -0.000000
-0.328844 -1.400450 0.885228 0.000000 -1.000000 -0.000000
-0.408044 -1.400450 0.845549 0.000000 -1.000000 -0.000000
-0.074697 -1.400450 0.952663 0.000000 -1.000000 -0.000000
-0.161363 -1.400450 0.939044 0.000000 -1.000000 -0.000000
0.644096 -1.400450 0.680229 -0.000000 -1.000000 -0.000000
0.702941 -1.400450 0.611474 -0.000000 -1.000000 -0.000000
0.888436 -0.919508 0.196032 -0.973136 0.000000 -0.230232
0.867136 -1.400450 0.286063 -0.973136 0.000000 -0.230232
0.867136 -0.919508 0.286063 -0.973136 0.000000 -0.230232
-0.483182 -1.400450 0.797838 0.000000 -1.000000 -0.000000
0.433663 -1.400450 0.845549 -0.000000 -1.000000 -0.000000
0.508818 -1.400450 0.797838 -0.000000 -1.000000 -0.000000
0.579186 -1.400450 0.742559 -0.000000 -1.000000 -0.000000
-2.059859 -1.400450 1.778621 -1.000000 -0.000000 0.000000
-2.059859 -1.204889 2.046361 -1.000000 -0.000000 0.000000
-2.059859 -1.204889 1.778621 -1.000000 -0.000000 0.000000
0.901294 -1.400450 0.104233 -0.990333 0.000000 -0.138707
0.888436 -1.400450 0.196032 -0.990333 0.000000 -0.138707
0.901294 -0.919507 0.104233 -0.990333 0.000000 -0.138707
0.901294 -1.400450 -0.081150 -0.998927 -0.000000 0.046304
0.354463 -1.400450 0.885228 0.000000 -1.000000 -0.000000
0.271977 -1.400450 0.916501 -0.000000 -1.000000 -0.000000
0.186980 -1.400450 0.939044 -0.000000 -1.000000 -0.000000
0.837631 -0.919507 -0.350353 -0.947456 -0.000000 0.319886
0.867136 -1.400450 -0.262963 -0.947456 -0.000000 0.319886
0.867136 -0.919507 -0.262963 -0.947456 -0.000000 0.319886
0.800170 -0.919507 -0.434245 -0.913102 -0.000000 0.407731
0.837631 -1.400450 -0.350353 -0.913102 -0.000000 0.407731
0.837631 -0.919507 -0.350353 -0.913102 -0.000000 0.407731
0.755128 -1.400450 0.536935 -0.000000 -1.000000 -0.000000
0.800170 -1.400450 0.457327 -0.000000 -1.000000 -0.000000
-0.246341 -1.400450 0.916501 0.000000 -1.000000 -0.000000
0.755128 -0.919507 -0.513835 -0.870299 -0.000000 0.492524
0.800170 -1.400450 -0.434245 -0.870299 -0.000000 0.492524
0.800170 -0.919507 -0.434245 -0.870299 -0.000000 0.492524
0.702941 -1.400450 -0.588374 -0.819179 -0.000000 0.573538
0.755128 -1.400450 -0.513835 -0.819179 -0.000000 0.573538
0.702941 -0.919507 -0.588374 -0.819179 -0.000000 0.573538
0.755128 -0.919507 -0.513835 -0.819179 -0.000000 0.573538
0.837631 -1.400450 -0.350353 -0.947456 -0.000000 0.319886
0.644096 -1.400450 -0.657147 -0.759824 -0.000000 0.650128
0.702941 -1.400450 -0.588374 -0.759824 -0.000000 0.650128
0.644096 -0.919507 -0.657147 -0.759824 -0.000000 0.650128
0.702941 -0.919507 -0.588374 -0.759824 -0.000000 0.650128
-0.677322 -1.400450 0.611474 0.000000 -1.000000 -0.000000
-0.729509 -1.400450 0.536935 0.000000 -1.000000 -0.000000
0.888436 -0.919508 0.196032 -0.990333 0.000000 -0.138707
0.905590 -0.919507 0.011541 -0.998927 0.000000 -0.046304
0.901294 -1.400450 0.104233 -0.998927 0.000000 -0.046304
0.901294 -0.919507 0.104233 -0.998927 0.000000 -0.046304
-0.553569 -1.400450 0.742559 0.000000 -1.000000 -0.000000
0.888436 -1.400450 0.196032 -0.973136 0.000000 -0.230232
0.354463 -1.400450 0.885228 -0.000000 -1.000000 -0.000001
-1.571181 -1.400450 1.778621 -0.000000 -1.000000 -0.000001
0.271977 -1.400450 0.916501 -0.000000 -1.000000 -0.000001
0.579186 -0.919507 -0.719459 -0.692522 -0.000000 0.721397
0.579186 -1.400450 -0.719459 -0.692522 -0.000000 0.721397
0.644096 -1.400450 -0.657147 -0.692522 -0.000000 0.721397
-1.571181 -1.204889 1.778621 0.000000 1.000000 0.000000
-2.059859 -1.204889 2.046361 0.000000 1.000000 0.000000
-1.571181 -1.204889 2.046361 0.000000 1.000000 0.000000
-0.618479 -1.400450 0.680229 0.000000 -1.000000 -0.000000
-0.875658 -1.400450 0.104233 0.000000 -1.000000 -0.000000
-0.862817 -1.400450 0.196032 0.000000 -1.000000 -0.000000
-0.841518 -1.400450 0.286063 0.000000 -1.000000 -0.000000
-1.571181 -1.204889 2.046361 0.000000 -0.000000 1.000000
-2.059859 -1.400450 2.046361 0.000000 -0.000000 1.000000
-1.571181 -1.400450 2.046361 0.000000 -0.000000 1.000000
0.012809 -1.400450 0.957215 0.000000 -1.000000 -0.000000
0.100316 -1.400450 0.952663 -0.000000 -1.000000 -0.000000
0.905590 -1.400450 0.011541 -0.998927 0.000000 -0.046304
0.888436 -0.919507 -0.172949 -0.973126 -0.000000 0.230274
0.800170 -1.400450 -0.434245 -0.913102 -0.000000 0.407731
0.755128 -1.400450 -0.513835 -0.870299 -0.000000 0.492523
0.800170 -1.400450 -0.434245 -0.870299 -0.000000 0.492523
0.755128 -0.919507 -0.513835 -0.870299 -0.000000 0.492523
0.888436 -1.400450 -0.172949 -0.990333 -0.000000 0.138707
-2.059859 -1.204889 2.046361 0.000000 -0.000000 1.000000
-2.059859 -1.204889 1.778621 -0.000000 1.000000 0.000000
0.867136 -1.400450 0.286063 -0.947437 0.000000 -0.319944
0.837631 -1.400450 0.373436 -0.947437 0.000000 -0.319944
0.867136 -0.919508 0.286063 -0.947437 0.000000 -0.319944
-1.571181 -1.400450 2.046361 1.000000 -0.000000 0.000000
-2.059859 -1.400450 2.046361 -1.000000 -0.000000 -0.000000
0.837631 -1.400450 0.373436 -0.000000 -1.000000 -0.000000
0.867136 -1.400450 0.286063 -0.000000 -1.000000 -0.000000
0.837631 -0.919508 0.373436 -0.947437 0.000000 -0.319944
-0.774553 -1.400450 -0.434245 0.913107 -0.000000 0.407720
-0.812012 -0.919507 -0.350353 0.913107 -0.000000 0.407720
-0.812012 -1.400450 -0.350353 0.913107 -0.000000 0.407720
0.354463 -0.919507 -0.862128 -0.447768 -0.000000 0.894150
0.354463 -1.400450 -0.862128 -0.447768 -0.000000 0.894150
0.433663 -1.400450 -0.822467 -0.447768 -0.000000 0.894150
-0.074697 -0.919507 -0.929563 0.051943 -0.000000 0.998650
-0.074697 -1.400450 -0.929563 0.051943 -0.000000 0.998650
0.012809 -1.400450 -0.934114 0.051943 -0.000000 0.998650
-0.408044 -0.919507 -0.822467 0.447768 -0.000000 0.894150
-0.408044 -1.400450 -0.822467 0.447768 -0.000000 0.894150
-0.328844 -1.400450 -0.862128 0.447768 -0.000000 0.894150
-0.618479 -0.919507 -0.657147 0.692522 -0.000000 0.721397
-0.553569 -1.400450 -0.719459 0.692522 -0.000000 0.721397
-0.553569 -0.919507 -0.719459 0.692522 -0.000000 0.721397
-0.875658 -1.400450 -0.081150 0.998919 -0.000000 0.046484
-0.879972 -0.919507 0.011541 0.998919 -0.000000 0.046484
-0.879972 -1.400450 0.011541 0.998919 -0.000000 0.046484
-0.875658 -0.919507 -0.081150 0.998919 -0.000000 0.046484
0.508818 -0.919507 -0.774756 -0.617871 -0.000000 0.786279
0.508818 -1.400450 -0.774756 -0.617871 -0.000000 0.786279
0.579186 -1.400450 -0.719459 -0.617871 -0.000000 0.786279
0.012809 -0.919507 -0.934114 -0.051942 -0.000000 0.998650
0.100316 -1.400450 -0.929563 -0.051942 -0.000000 0.998650
0.100316 -0.919507 -0.929563 -0.051942 -0.000000 0.998650
-0.483182 -0.919507 -0.774756 0.536041 -0.000000 0.844192
-0.408044 -1.400450 -0.822467 0.536041 -0.000000 0.844192
-0.408044 -0.919507 -0.822467 0.536041 -0.000000 0.844192
-0.328844 -0.919507 -0.862128 0.447768 -0.000000 0.894150
-0.677322 -1.400450 -0.588374 0.819179 -0.000000 0.573538
-0.729509 -0.919507 -0.513835 0.819179 -0.000000 0.573538
-0.729509 -1.400450 -0.513835 0.819179 -0.000000 0.573538
0.433663 -0.919507 -0.822467 -0.535956 -0.000000 0.844246
0.508818 -1.400450 -0.774756 -0.535956 -0.000000 0.844246
0.508818 -0.919507 -0.774756 -0.535956 -0.000000 0.844246
-0.812012 -1.400450 -0.350353 0.947452 -0.000000 0.319898
-0.841518 -0.919507 -0.262963 0.947452 -0.000000 0.319898
-0.841518 -1.400450 -0.262963 0.947452 -0.000000 0.319898
-0.161363 -0.919507 -0.915944 0.155239 -0.000000 0.987877
-0.074697 -1.400450 -0.929563 0.155239 -0.000000 0.987877
-0.074697 -0.919507 -0.929563 0.155239 -0.000000 0.987877
-0.879972 -0.919507 0.011541 0.998919 0.000000 -0.046484
-0.875658 -0.919507 0.104233 0.998919 0.000000 -0.046484
-0.879972 -1.400450 0.011541 0.998919 0.000000 -0.046484
-0.328844 -0.919507 -0.862128 0.354434 -0.000000 0.935081
-0.246341 -1.400450 -0.893400 0.354434 -0.000000 0.935081
-0.246341 -0.919507 -0.893400 0.354434 -0.000000 0.935081
-0.553569 -0.919507 -0.719459 0.617773 -0.000000 0.786356
-0.553569 -1.400450 -0.719459 0.617773 -0.000000 0.786356
-0.483182 -1.400450 -0.774756 0.617773 -0.000000 0.786356
-0.483182 -0.919507 -0.774756 0.617773 -0.000000 0.786356
-0.875658 -1.400450 0.104233 0.990358 0.000000 -0.138531
-0.862817 -0.919508 0.196032 0.990358 0.000000 -0.138531
-0.862817 -1.400450 0.196032 0.990358 0.000000 -0.138531
-0.677322 -0.919507 -0.588374 0.819179 -0.000000 0.573538
-0.875658 -0.919507 0.104233 0.990358 0.000000 -0.138531
-0.862817 -1.400450 0.196032 0.973139 0.000000 -0.230218
-0.841518 -0.919508 0.286063 0.973139 0.000000 -0.230218
-0.841518 -1.400450 0.286063 0.973139 0.000000 -0.230218
-0.862817 -0.919508 0.196032 0.973139 0.000000 -0.230218
-0.812012 -1.400450 0.373436 0.913107 0.000000 -0.407719
-0.774553 -0.919508 0.457328 0.913107 0.000000 -0.407719
-0.774553 -1.400450 0.457327 0.913107 0.000000 -0.407719
0.271977 -0.919507 -0.893400 -0.354497 -0.000000 0.935057
0.271977 -1.400450 -0.893400 -0.354497 -0.000000 0.935057
0.354463 -1.400450 -0.862128 -0.354497 -0.000000 0.935057
0.186980 -0.919507 -0.915944 -0.256367 -0.000000 0.966579
0.186980 -1.400450 -0.915944 -0.256367 -0.000000 0.966579
0.271977 -1.400450 -0.893400 -0.256367 -0.000000 0.966579
-0.774553 -1.400450 0.457327 0.870340 0.000000 -0.492452
-0.729509 -0.919508 0.536935 0.870340 0.000000 -0.492452
-0.729509 -1.400450 0.536935 0.870340 0.000000 -0.492452
-0.618479 -1.400450 -0.657147 0.759832 -0.000000 0.650120
-0.677322 -0.919507 -0.588374 0.759832 -0.000000 0.650120
-0.677322 -1.400450 -0.588374 0.759832 -0.000000 0.650120
-0.862817 -1.400450 -0.172949 0.990358 -0.000000 0.138531
-0.875658 -0.919507 -0.081150 0.990358 -0.000000 0.138531
-0.875658 -1.400450 -0.081150 0.990358 -0.000000 0.138531
-0.812012 -0.919508 0.373436 0.913107 0.000000 -0.407719
-0.774553 -0.919508 0.457328 0.870340 0.000000 -0.492452
-0.729509 -1.400450 0.536935 0.819179 0.000000 -0.573538
-0.677322 -0.919508 0.611474 0.819179 0.000000 -0.573538
-0.677322 -1.400450 0.611474 0.819179 0.000000 -0.573538
-0.677322 -1.400450 0.611474 0.759749 0.000000 -0.650217
-0.618479 -0.919508 0.680230 0.759749 0.000000 -0.650217
-0.618479 -1.400450 0.680229 0.759749 0.000000 -0.650217
-0.841518 -1.400450 -0.262963 0.973129 -0.000000 0.230261
-0.862817 -0.919507 -0.172949 0.973129 -0.000000 0.230261
-0.862817 -1.400450 -0.172949 0.973129 -0.000000 0.230261
-0.677322 -0.919508 0.611474 0.759749 0.000000 -0.650217
-0.553569 -0.919508 0.742559 0.692625 0.000000 -0.721298
-0.553569 -1.400450 0.742559 0.692625 0.000000 -0.721298
-0.618479 -1.400450 0.680229 0.692625 0.000000 -0.721298
0.100316 -0.919507 -0.929563 -0.155241 -0.000000 0.987877
0.100316 -1.400450 -0.929563 -0.155241 -0.000000 0.987877
0.186980 -1.400450 -0.915944 -0.155241 -0.000000 0.987877
-0.246341 -0.919507 -0.893400 0.256418 -0.000000 0.966566
-0.246341 -1.400450 -0.893400 0.256418 -0.000000 0.966566
-0.161363 -1.400450 -0.915944 0.256418 -0.000000 0.966566
0.354463 -0.919507 -0.862128 -0.354497 -0.000000 0.935057
-0.328844 -1.400450 -0.862128 0.354434 -0.000000 0.935081
-0.774553 -0.919507 -0.434245 0.913107 -0.000000 0.407720
-0.875658 -1.400450 0.104233 0.998919 0.000000 -0.046484
-0.841518 -1.400450 0.286063 0.947432 0.000000 -0.319956
-0.812012 -0.919508 0.373436 0.947432 0.000000 -0.319956
-0.812012 -1.400450 0.373436 0.947432 0.000000 -0.319956
-0.841518 -0.919508 0.286063 0.947432 0.000000 -0.319956
0.433663 -1.400450 -0.822467 -0.535956 -0.000000 0.844246
-0.729509 -0.919508 0.536935 0.819179 0.000000 -0.573538
-0.729509 -1.400450 -0.513835 0.870293 -0.000000 0.492534
-0.774553 -0.919507 -0.434245 0.870293 -0.000000 0.492534
-0.774553 -1.400450 -0.434245 0.870293 -0.000000 0.492534
0.644096 -0.919507 -0.657147 -0.692522 -0.000000 0.721397
-0.618479 -0.919507 -0.657147 0.759832 -0.000000 0.650120
-0.161363 -1.400450 -0.915944 0.155239 -0.000000 0.987877
-0.841518 -0.919507 -0.262963 0.973129 -0.000000 0.230261
0.271977 -0.919507 -0.893400 -0.256367 -0.000000 0.966579
-0.483182 -1.400450 -0.774756 0.536041 -0.000000 0.844192
0.433663 -0.919507 -0.822467 -0.447768 -0.000000 0.894150
-0.812012 -0.919507 -0.350353 0.947452 -0.000000 0.319898
0.579186 -0.919507 -0.719459 -0.617871 -0.000000 0.786279
0.012809 -0.919507 -0.934114 0.051943 -0.000000 0.998650
-0.862817 -0.919507 -0.172949 0.990358 -0.000000 0.138531
0.186980 -0.919507 -0.915944 -0.155241 -0.000000 0.987877
0.012809 -1.400450 -0.934114 -0.051942 -0.000000 0.998650
-0.618479 -1.400450 -0.657147 0.692522 -0.000000 0.721397
-0.161363 -0.919507 -0.915944 0.256418 -0.000000 0.966566
-0.729509 -0.919507 -0.513835 0.870293 -0.000000 0.492535
-0.774553 -0.919507 -0.434245 0.870293 -0.000000 0.492535
-0.729509 -1.400450 -0.513835 0.870293 -0.000000 0.492535
0.702941 -0.919508 0.611474 -0.759742 0.000000 -0.650225
0.644096 -1.400450 0.680229 -0.759742 0.000000 -0.650225
0.644096 -0.919508 0.680230 -0.759742 0.000000 -0.650225
-0.161363 -0.919508 0.939044 0.256414 0.000000 -0.966567
-0.246341 -1.400450 0.916501 0.256414 0.000000 -0.966567
-0.246341 -0.919508 0.916501 0.256414 0.000000 -0.966567
0.837631 -1.400450 0.373436 -0.913102 0.000000 -0.407731
0.800170 -1.400450 0.457327 -0.913102 0.000000 -0.407731
0.837631 -0.919508 0.373436 -0.913102 0.000000 -0.407731
0.800170 -1.400450 0.457327 -0.870346 0.000000 -0.492441
0.755128 -1.400450 0.536935 -0.870346 0.000000 -0.492441
0.800170 -0.919508 0.457328 -0.870346 0.000000 -0.492441
0.579186 -0.919508 0.742559 -0.617749 0.000000 -0.786375
0.508818 -1.400450 0.797838 -0.617749 0.000000 -0.786375
0.508818 -0.919508 0.797838 -0.617749 0.000000 -0.786375
-0.483182 -0.919508 0.797838 0.617651 0.000000 -0.786452
-0.553569 -1.400450 0.742559 0.617651 0.000000 -0.786452
-0.553569 -0.919508 0.742559 0.617651 0.000000 -0.786452
0.354463 -0.919508 0.885228 -0.354501 0.000000 -0.935056
0.271977 -1.400450 0.916501 -0.354501 0.000000 -0.935056
0.271977 -0.919508 0.916501 -0.354501 0.000000 -0.935056
0.186980 -0.919508 0.939044 -0.155241 0.000000 -0.987877
0.186980 -1.400450 0.939044 -0.155241 0.000000 -0.987877
0.100316 -1.400450 0.952663 -0.155241 0.000000 -0.987877
0.012809 -0.919508 0.957215 0.051946 0.000000 -0.998650
-0.074697 -1.400450 0.952663 0.051946 0.000000 -0.998650
-0.074697 -0.919508 0.952663 0.051946 0.000000 -0.998650
-0.408044 -0.919508 0.845550 0.536041 0.000000 -0.844192
-0.483182 -1.400450 0.797838 0.536041 0.000000 -0.844192
-0.483182 -0.919508 0.797838 0.536041 0.000000 -0.844192
0.271977 -0.919508 0.916501 -0.256364 0.000000 -0.966580
0.271977 -1.400450 0.916501 -0.256364 0.000000 -0.966580
0.186980 -1.400450 0.939044 -0.256364 0.000000 -0.966580
0.508818 -0.919508 0.797838 -0.535956 0.000000 -0.844246
0.508818 -1.400450 0.797838 -0.535956 0.000000 -0.844246
0.433663 -1.400450 0.845549 -0.535956 0.000000 -0.844246
0.579186 -1.400450 0.742559 -0.617749 0.000000 -0.786375
-0.328844 -0.919508 0.885228 0.447928 0.000000 -0.894070
-0.408044 -1.400450 0.845549 0.447928 0.000000 -0.894070
-0.408044 -0.919508 0.845550 0.447928 0.000000 -0.894070
-0.246341 -0.919508 0.916501 0.354438 0.000000 -0.935080
-0.328844 -1.400450 0.885228 0.354438 0.000000 -0.935080
-0.328844 -0.919508 0.885228 0.354438 0.000000 -0.935080
0.100316 -0.919508 0.952663 -0.155241 -0.000000 -0.987877
0.433663 -0.919508 0.845550 -0.535956 0.000000 -0.844246
0.012809 -1.400450 0.957215 0.051946 0.000000 -0.998650
0.755128 -0.919508 0.536935 -0.870346 0.000000 -0.492441
0.644096 -0.919508 0.680230 -0.692625 0.000000 -0.721298
0.644096 -1.400450 0.680229 -0.692625 0.000000 -0.721298
0.579186 -1.400450 0.742559 -0.692625 0.000000 -0.721298
-0.328844 -1.400450 0.885228 0.447928 0.000000 -0.894070
0.755128 -1.400450 0.536935 -0.819179 0.000000 -0.573538
0.702941 -1.400450 0.611474 -0.819179 0.000000 -0.573538
0.755128 -0.919508 0.536935 -0.819179 0.000000 -0.573538
0.433663 -0.919508 0.845550 -0.447928 0.000000 -0.894070
0.354463 -1.400450 0.885228 -0.447928 0.000000 -0.894070
0.354463 -0.919508 0.885228 -0.447928 0.000000 -0.894070
0.800170 -0.919508 0.457328 -0.913102 0.000000 -0.407731
-0.246341 -1.400450 0.916501 0.354438 0.000000 -0.935080
-0.618479 -0.919508 0.680230 0.692625 0.000000 -0.721298
-0.161363 -0.919508 0.939044 0.256415 0.000000 -0.966567
-0.161363 -1.400450 0.939044 0.256415 0.000000 -0.966567
-0.246341 -1.400450 0.916501 0.256415 0.000000 -0.966567
0.100316 -0.919508 0.952663 -0.051946 -0.000000 -0.998650
0.012809 -1.400450 0.957215 -0.051946 -0.000000 -0.998650
0.012809 -0.919508 0.957215 -0.051946 -0.000000 -0.998650
0.100316 -1.400450 0.952663 -0.051946 0.000000 -0.998650
0.702941 -0.919508 0.611474 -0.819179 0.000000 -0.573538
-0.074697 -0.919508 0.952663 0.155239 0.000000 -0.987877
-0.161363 -1.400450 0.939044 0.155239 0.000000 -0.987877
-0.161363 -0.919508 0.939044 0.155239 0.000000 -0.987877
0.579186 -0.919508 0.742559 -0.692625 0.000000 -0.721298
-0.483182 -1.400450 0.797838 0.617651 0.000000 -0.786452
0.433663 -1.400450 0.845549 -0.447928 0.000000 -0.894070
0.702941 -1.400450 0.611474 -0.759742 0.000000 -0.650225
-0.408044 -1.400450 0.845549 0.536041 0.000000 -0.844192
0.186980 -0.919508 0.939044 -0.256364 -0.000000 -0.966580
-0.074697 -1.400450 0.952663 0.155239 0.000000 -0.987877
0.354463 -1.400450 0.885228 -0.354501 0.000000 -0.935056
-2.312624 -0.994510 -1.401427 -1.000000 0.000000 0.000000
-2.312624 -1.073895 -1.659688 -0.656969 -0.720642 0.221513
-2.177817 -1.057389 -1.206173 -0.656969 -0.720642 0.221513
-2.312624 -0.994510 -1.401427 -0.656969 -0.720642 0.221513
-2.312624 -1.073895 -1.659688 -0.656955 -0.720655 0.221509
-2.177817 -1.106607 -1.366299 -0.656955 -0.720655 0.221509
-2.177817 -1.057389 -1.206173 -0.656955 -0.720655 0.221509
-2.177817 -1.057389 -0.408935 -0.422711 -0.906265 -0.000000
-2.312624 -0.994511 -0.115546 -0.422711 -0.906265 -0.000000
-2.312624 -0.994510 -1.401427 -0.422711 -0.906265 -0.000000
-2.177817 -1.057389 -0.408935 -0.422712 -0.906264 0.000000
-2.312624 -0.994510 -1.401427 -0.422712 -0.906264 0.000000
-2.177817 -1.057389 -1.206173 -0.422712 -0.906264 0.000000
-2.177817 -1.057389 -0.408935 -0.908669 0.000000 -0.417517
-2.312624 -1.325445 -0.115546 -0.908669 0.000000 -0.417517
-2.312624 -0.994511 -0.115546 -0.908669 0.000000 -0.417517
-2.177817 -1.262568 -0.408935 -0.908669 0.000000 -0.417517
-2.312624 -0.919508 1.442662 -0.000000 1.000000 0.000000
-0.677322 -0.919508 0.611474 -0.000000 1.000000 0.000000
-2.312624 -0.919507 -1.419580 -0.000000 1.000000 0.000000
-0.618479 -0.919508 0.680230 -0.000000 1.000000 0.000000
-0.553569 -0.919508 0.742559 -0.000000 1.000000 0.000000
-0.483182 -0.919508 0.797838 -0.000000 1.000000 0.000000
-0.408044 -0.919508 0.845550 -0.000000 1.000000 0.000000
-0.328844 -0.919508 0.885228 -0.000000 1.000000 0.000000
-0.246341 -0.919508 0.916501 -0.000000 1.000000 0.000000
-0.161363 -0.919508 0.939044 -0.000000 1.000000 0.000000
2.338158 -0.919508 1.442662 0.000000 1.000000 0.000000
-2.312624 -0.919507 -1.419580 0.000001 1.000000 -0.000000
-0.677322 -0.919508 0.611474 0.000001 1.000000 -0.000000
-0.729509 -0.919508 0.536935 0.000001 1.000000 -0.000000
-0.729509 -0.919508 0.536935 0.000000 1.000000 -0.000000
-0.774553 -0.919508 0.457328 0.000000 1.000000 -0.000000
-0.812012 -0.919508 0.373436 0.000000 1.000000 -0.000000
-0.841518 -0.919508 0.286063 0.000000 1.000000 -0.000000
-0.862817 -0.919508 0.196032 0.000000 1.000000 -0.000000
-2.312624 -0.919507 -1.419580 -0.000001 1.000000 0.000001
-0.862817 -0.919508 0.196032 -0.000001 1.000000 0.000001
-0.875658 -0.919507 0.104233 -0.000001 1.000000 0.000001
-0.875658 -0.919507 0.104233 0.000000 1.000000 -0.000000
-0.879972 -0.919507 0.011541 0.000000 1.000000 -0.000000
-0.161363 -0.919508 0.939044 -0.000000 1.000000 0.000001
2.338158 -0.919508 1.442662 -0.000000 1.000000 0.000001
-0.074697 -0.919508 0.952663 -0.000000 1.000000 0.000001
-0.074697 -0.919508 0.952663 -0.000000 1.000000 0.000000
0.012809 -0.919508 0.957215 -0.000000 1.000000 0.000000
0.100316 -0.919508 0.952663 0.000000 1.000000 0.000000
0.186980 -0.919508 0.939044 0.000000 1.000000 0.000000
0.271977 -0.919508 0.916501 0.000000 1.000000 0.000000
0.354463 -0.919508 0.885228 0.000000 1.000000 0.000000
0.433663 -0.919508 0.845550 0.000000 1.000000 0.000000
0.508818 -0.919508 0.797838 0.000000 1.000000 0.000000
0.579186 -0.919508 0.742559 0.000000 1.000000 0.000000
0.644096 -0.919508 0.680230 0.000000 1.000000 0.000000
0.702941 -0.919508 0.611474 0.000000 1.000000 0.000000
0.755128 -0.919508 0.536935 0.000000 1.000000 0.000000
0.800170 -0.919508 0.457328 0.000000 1.000000 0.000000
0.837631 -0.919508 0.373436 0.000000 1.000000 0.000000
0.867136 -0.919508 0.286063 0.000000 1.000000 0.000000
0.888436 -0.919508 0.196032 0.000000 1.000000 0.000000
0.888436 -0.919508 0.196032 -0.000000 1.000000 0.000001
0.901294 -0.919507 0.104233 -0.000000 1.000000 0.000001
0.901294 -0.919507 0.104233 0.000000 1.000000 0.000000
0.905590 -0.919507 0.011541 0.000000 1.000000 0.000000
-0.161363 -0.919507 -0.915944 0.000000 1.000000 0.000000
2.338158 -0.919507 -1.419580 0.000000 1.000000 0.000000
-0.246341 -0.919507 -0.893400 -0.000000 1.000000 0.000000
-0.328844 -0.919507 -0.862128 -0.000000 1.000000 0.000000
-0.408044 -0.919507 -0.822467 -0.000000 1.000000 0.000000
-0.483182 -0.919507 -0.774756 -0.000000 1.000000 0.000000
-0.553569 -0.919507 -0.719459 -0.000000 1.000000 0.000000
-0.618479 -0.919507 -0.657147 -0.000000 1.000000 0.000000
-0.677322 -0.919507 -0.588374 -0.000000 1.000000 0.000000
-0.729509 -0.919507 -0.513835 -0.000000 1.000000 0.000000
-0.774553 -0.919507 -0.434245 -0.000000 1.000000 0.000000
-0.812012 -0.919507 -0.350353 -0.000000 1.000000 0.000000
-0.812012 -0.919507 -0.350353 -0.000000 1.000000 0.000001
-2.312624 -0.919507 -1.419580 -0.000000 1.000000 0.000001
-0.841518 -0.919507 -0.262963 -0.000000 1.000000 0.000001
-0.841518 -0.919507 -0.262963 0.000000 1.000000 0.000000
-0.862817 -0.919507 -0.172949 0.000000 1.000000 0.000000
-0.875658 -0.919507 -0.081150 0.000000 1.000000 0.000000
-0.074697 -0.919507 -0.929563 0.000000 1.000000 0.000000
0.012809 -0.919507 -0.934114 0.000000 1.000000 0.000000
0.100316 -0.919507 -0.929563 0.000000 1.000000 0.000000
0.186980 -0.919507 -0.915944 0.000000 1.000000 0.000000
0.271977 -0.919507 -0.893400 0.000000 1.000000 0.000000
0.354463 -0.919507 -0.862128 0.000000 1.000000 0.000000
0.433663 -0.919507 -0.822467 0.000000 1.000000 0.000000
0.508818 -0.919507 -0.774756 0.000000 1.000000 0.000000
0.579186 -0.919507 -0.719459 0.000000 1.000000 0.000000
0.644096 -0.919507 -0.657147 0.000000 1.000000 0.000000
0.702941 -0.919507 -0.588374 0.000000 1.000000 0.000000
0.755128 -0.919507 -0.513835 0.000000 1.000000 0.000000
0.800170 -0.919507 -0.434245 0.000000 1.000000 0.000000
0.837631 -0.919507 -0.350353 0.000000 1.000000 0.000000
2.338158 -0.919507 -1.419580 0.000000 1.000000 0.000001
0.837631 -0.919507 -0.350353 0.000000 1.000000 0.000001
0.867136 -0.919507 -0.262963 0.000000 1.000000 0.000001
0.867136 -0.919507 -0.262963 -0.000000 1.000000 0.000000
0.888436 -0.919507 -0.172949 -0.000000 1.000000 0.000000
0.901294 -0.919507 -0.081150 -0.000000 1.000000 0.000000
-2.059859 -1.204889 -2.023278 0.000000 0.000000 -1.000000
-1.571181 -1.400449 -2.023278 0.000000 0.000000 -1.000000
-2.059859 -1.400449 -2.023278 0.000000 0.000000 -1.000000
-1.571181 -1.204889 -2.023278 -0.000000 -0.000000 -1.000000
2.085393 -1.204889 1.778621 1.000000 -0.000000 -0.000000
2.085393 -1.400450 2.046361 1.000000 -0.000000 -0.000000
2.338158 -1.085826 1.660423 0.425935 -0.864826 -0.265811
1.984288 -1.056406 0.997661 0.425935 -0.864826 -0.265811
2.338158 -1.012016 1.420279 0.425935 -0.864826 -0.265811
1.984288 -1.108073 1.165748 0.813321 0.000000 -0.581816
2.338158 -1.085826 1.660423 0.813321 0.000000 -0.581816
1.984288 -1.263552 1.165748 0.813321 0.000000 -0.581816
2.338158 -1.307940 -1.637323 0.124462 0.992224 0.000000
1.984288 -1.263552 1.165748 0.124462 0.992224 0.000000
2.338158 -1.307940 1.660423 0.124462 0.992224 0.000000
-2.059859 -1.400449 -2.023278 -1.000000 -0.000000 -0.000000
-2.059859 -1.400449 -1.755539 -1.000000 -0.000000 -0.000000
-2.059859 -1.204889 -1.755539 -1.000000 -0.000000 -0.000000
-2.059859 -1.204889 -2.023278 -1.000000 -0.000000 0.000000
2.085393 -1.204889 -1.755539 -0.000000 1.000000 0.000000
1.596885 -1.204889 -2.023278 -0.000000 1.000000 0.000000
1.596885 -1.204889 -1.755539 -0.000000 1.000000 0.000000
2.085393 -1.204889 -2.023278 0.000000 1.000000 -0.000000
0.755128 -1.400450 -0.513835 0.000000 -1.000000 -0.000000
0.702941 -1.400450 -0.588374 0.000000 -1.000000 -0.000000
2.085393 -1.204889 2.046361 1.000000 -0.000000 0.000000
0.837631 -1.400450 -0.350353 0.000000 -1.000000 -0.000000
0.800170 -1.400450 -0.434245 0.000000 -1.000000 -0.000000
0.867136 -1.400450 -0.262963 0.000000 -1.000000 -0.000000
1.596885 -1.204889 -2.023278 0.000000 0.000000 -1.000000
2.085393 -1.400449 -2.023278 0.000000 0.000000 -1.000000
1.596885 -1.400449 -2.023278 0.000000 0.000000 -1.000000
2.085393 -1.204889 -2.023278 -0.000000 -0.000000 -1.000000
-1.571181 -1.204889 -1.755539 1.000000 -0.000000 0.000000
1.596885 -1.204889 2.046361 0.000000 -0.000000 1.000000
1.596885 -1.400450 2.046361 0.000000 -0.000000 1.000000
2.085393 -1.204889 2.046361 0.000000 -0.000000 1.000000
1.984288 -1.108072 -1.142665 1.000000 -0.000000 0.000000
1.984288 -1.056405 -0.974561 1.000000 -0.000000 0.000000
1.984288 -1.263551 -1.142665 1.000000 -0.000000 0.000000
2.338158 -1.012016 1.420279 0.124465 -0.992224 -0.000000
1.984288 -1.056405 -0.974561 0.124465 -0.992224 -0.000000
2.338158 -1.012016 -1.397196 0.124465 -0.992224 -0.000000
2.338158 -1.085826 1.660423 0.425967 -0.864806 -0.265827
1.984288 -1.108073 1.165748 0.425967 -0.864806 -0.265827
1.984288 -1.056406 0.997661 0.425967 -0.864806 -0.265827
1.984288 -1.263552 1.165748 1.000000 0.000000 0.000000
2.085393 -1.400450 2.046361 0.000000 -0.000000 1.000000
-1.571181 -1.204889 -1.755539 -0.000000 1.000000 0.000000
-2.059859 -1.204889 -2.023278 -0.000000 1.000000 0.000000
-2.059859 -1.204889 -1.755539 -0.000000 1.000000 0.000000
-1.571181 -1.204889 -2.023278 0.000000 1.000000 -0.000000
1.984288 -1.056406 0.997661 1.000000 0.000000 0.000000
1.984288 -1.108073 1.165748 1.000000 0.000000 0.000000
2.338158 -1.307940 1.660423 0.813321 0.000000 -0.581816
1.984288 -1.263551 -1.142665 0.124462 0.992224 0.000000
2.338158 -1.307940 -1.637323 0.813311 -0.000000 0.581830
1.984288 -1.108072 -1.142665 0.813311 -0.000000 0.581830
1.984288 -1.263551 -1.142665 0.813311 -0.000000 0.581830
1.984288 -1.056406 0.997661 0.124465 -0.992224 -0.000000
2.085393 -1.400450 2.046361 0.000000 -1.000000 -0.000000
2.338158 -1.085826 -1.637323 0.813311 0.000000 0.581830
2.338158 -1.012016 -1.397196 0.425941 -0.864825 0.265805
1.984288 -1.056405 -0.974561 0.425941 -0.864825 0.265805
1.984288 -1.108072 -1.142665 0.425941 -0.864825 0.265805
2.338158 -1.012016 -1.397196 0.425953 -0.864813 0.265826
1.984288 -1.108072 -1.142665 0.425953 -0.864813 0.265826
2.338158 -1.085826 -1.637323 0.425953 -0.864813 0.265826
1.596885 -1.204889 -2.023278 -1.000000 -0.000000 -0.000000
1.596885 -1.400449 -1.755539 -1.000000 -0.000000 -0.000000
1.596885 -1.204889 -1.755539 -1.000000 -0.000000 -0.000000
1.596885 -1.400449 -2.023278 -1.000000 0.000000 0.000000
2.085393 -1.204889 -2.023278 1.000000 -0.000000 0.000000
2.085393 -1.204889 -1.755539 1.000000 -0.000000 0.000000
-1.571181 -1.204889 -2.023278 1.000000 -0.000000 0.000000
2.338158 -1.400449 -1.755539 1.000000 -0.000000 0.000000
2.338158 -1.085826 -1.637323 1.000000 -0.000000 0.000000
2.338158 -1.307940 -1.637323 1.000000 -0.000000 0.000000
2.338158 -1.022772 1.778621 1.000000 0.000000 -0.000000
2.338158 -1.085826 1.660423 1.000000 0.000000 -0.000000
2.338158 -0.919508 1.442662 1.000000 0.000000 -0.000000
2.338158 -1.307940 1.660423 1.000000 -0.000000 0.000000
2.338158 -1.012016 1.420279 1.000000 -0.000000 -0.000000
2.338158 -0.919507 -1.419580 1.000000 0.000000 -0.000000
2.338158 -1.012016 -1.397196 1.000000 -0.000000 -0.000000
2.338158 -1.022772 -1.755539 1.000000 0.000000 -0.000000
2.338158 -1.400450 1.778621 1.000000 0.000000 0.000000
-1.571181 -1.400450 1.778621 0.000000 -0.000000 1.000000
1.596885 -1.400450 1.778621 0.000000 -0.000000 1.000000
-1.571181 -1.204889 1.778621 -0.000000 0.000000 1.000000
-2.059859 -1.204889 1.778621 -0.000000 0.000000 1.000000
-2.312624 -1.400450 1.778621 0.000000 -0.000000 1.000000
-2.059859 -1.400450 1.778621 0.000000 -0.000000 1.000000
-2.312624 -1.022772 1.778621 0.000000 0.000000 1.000000
3 0 1 2
3 3 4 5
3 6 7 8
3 9 10 11
3 12 13 14
3 13 12 15
3 16 17 18
3 19 20 18
3 0 21 1
3 22 23 24
3 22 24 25
3 11 10 26
3 27 28 29
3 30 31 32
3 33 34 23
3 34 33 35
3 34 35 36
3 23 37 24
3 37 23 34
3 38 39 40
3 41 42 18
3 43 16 18
3 44 45 46
3 47 48 18
3 47 49 50
3 47 51 52
3 47 53 54
3 47 55 53
3 47 56 49
3 57 58 59
3 58 57 60
3 60 57 61
3 62 63 18
3 64 31 30
3 20 65 18
3 66 19 18
3 67 68 69
3 70 71 72
3 9 11 73
3 74 75 18
3 38 40 76
3 27 77 28
3 65 62 18
3 78 41 18
3 17 66 18
3 75 78 18
3 63 74 18
3 79 80 18
3 81 79 18
3 82 81 18
3 83 4 3
3 84 71 70
3 47 54 51
3 80 43 18
3 47 85 56
3 42 86 18
3 87 82 18
3 47 50 48
3 25 24 88
3 89 23 22
3 90 91 92
3 93 94 95
3 96 97 98
3 97 96 99
3 100 91 90
3 101 47 102
3 47 101 103
3 103 101 104
3 105 106 107
3 108 109 110
3 111 112 113
3 112 111 114
3 114 111 115
3 115 111 116
3 116 111 117
3 117 118 119
3 118 117 120
3 120 117 111
3 115 121 122
3 121 115 116
3 123 124 125
3 126 101 102
3 127 128 129
3 130 89 131
3 132 89 130
3 132 23 89
3 133 134 135
3 136 134 133
3 137 133 138
3 133 137 136
3 139 140 141
3 137 142 143
3 144 145 146
3 130 131 147
3 148 143 142
3 149 150 144
3 108 151 109
3 152 123 125
3 105 101 106
3 153 154 155
3 156 157 158
3 159 160 161
3 162 142 163
3 164 142 165
3 166 142 167
3 103 168 169
3 170 171 172
3 165 142 173
3 103 174 175
3 103 176 168
3 177 178 179
3 180 181 182
3 183 154 153
3 103 142 184
3 185 142 186
3 187 188 189
3 190 191 192
3 103 193 194
3 195 142 164
3 196 197 198
3 199 200 201
3 201 200 202
3 203 188 187
3 204 205 206
3 206 205 207
3 208 142 209
3 182 181 210
3 211 212 213
3 173 142 214
3 215 171 170
3 216 217 218
3 219 220 221
3 222 223 224
3 225 142 208
3 214 142 225
3 226 142 86
3 227 142 226
3 228 142 227
3 167 142 195
3 229 230 231
3 232 142 166
3 233 142 232
3 186 142 233
3 103 169 193
3 86 142 18
3 234 212 211
3 161 160 235
3 236 191 190
3 237 238 239
3 240 157 156
3 241 230 229
3 222 242 223
3 163 142 228
3 209 142 162
3 103 184 174
3 103 175 176
3 243 244 245
3 144 150 246
3 177 247 178
3 103 194 248
3 249 103 248
3 103 249 47
3 245 244 250
3 251 252 253
3 254 255 256
3 257 258 259
3 260 261 262
3 263 264 265
3 266 267 268
3 269 267 266
3 270 271 272
3 273 274 275
3 276 277 278
3 260 262 279
3 280 281 282
3 283 284 285
3 286 287 288
3 289 290 291
3 292 293 294
3 295 296 297
3 298 299 300
3 298 300 301
3 302 303 304
3 305 281 280
3 306 303 302
3 307 308 309
3 310 308 307
3 311 312 313
3 314 315 316
3 317 318 319
3 320 321 322
3 323 324 325
3 326 327 328
3 329 312 311
3 330 321 320
3 331 332 333
3 334 335 336
3 337 338 339
3 340 335 334
3 341 342 343
3 344 345 346
3 347 348 349
3 314 316 350
3 295 351 296
3 352 252 251
3 294 293 353
3 354 355 356
3 357 355 354
3 283 358 284
3 359 332 331
3 360 361 362
3 219 221 363
3 364 324 323
3 289 365 290
3 366 338 337
3 317 319 367
3 276 368 277
3 254 256 369
3 370 287 286
3 270 272 371
3 257 259 372
3 373 327 326
3 344 346 374
3 273 375 274
3 263 376 264
3 347 349 377
3 378 379 380
3 381 382 383
3 384 385 386
3 387 388 389
3 390 391 392
3 393 394 395
3 396 397 398
3 399 400 401
3 402 403 404
3 405 406 407
3 408 409 410
3 411 412 413
3 414 415 416
3 393 417 394
3 418 419 420
3 421 422 423
3 402 404 424
3 414 416 425
3 405 426 406
3 392 391 427
3 428 429 430
3 418 431 419
3 432 433 434
3 435 436 437
3 389 388 438
3 421 439 422
3 341 343 440
3 441 442 443
3 444 445 446
3 444 447 445
3 434 433 448
3 449 450 451
3 428 430 452
3 396 453 397
3 435 454 436
3 455 382 381
3 408 456 409
3 411 413 457
3 449 458 450
3 399 459 400
3 147 36 35
3 36 147 88
3 88 147 25
3 25 147 460
3 461 462 463
3 131 460 147
3 464 465 466
3 467 468 469
3 470 471 472
3 473 474 475
3 476 474 473
3 477 478 479
3 478 477 480
3 480 477 481
3 481 477 482
3 482 477 483
3 483 477 484
3 484 477 485
3 485 477 486
3 486 477 487
3 488 489 490
3 479 491 492
3 479 492 493
3 479 493 494
3 479 494 495
3 496 497 498
3 479 499 500
3 501 502 503
3 504 487 505
3 505 487 506
3 506 487 507
3 507 487 508
3 508 487 509
3 509 487 510
3 510 487 511
3 511 487 512
3 512 487 513
3 513 487 514
3 514 487 515
3 515 487 516
3 516 487 517
3 517 487 518
3 518 487 519
3 520 502 521
3 522 487 523
3 479 524 525
3 524 479 526
3 526 479 527
3 527 479 528
3 528 479 529
3 529 479 530
3 530 479 531
3 531 479 532
3 532 479 533
3 533 479 534
3 534 479 535
3 536 537 538
3 539 479 540
3 540 479 541
3 541 479 500
3 525 524 542
3 525 542 543
3 525 543 544
3 525 544 545
3 525 545 546
3 525 546 547
3 525 547 548
3 525 548 549
3 525 549 550
3 525 550 551
3 525 551 552
3 525 552 553
3 525 553 554
3 525 554 555
3 556 557 558
3 525 559 560
3 525 560 561
3 525 561 523
3 525 523 487
3 562 563 564
3 563 562 565
3 566 567 127
3 568 569 570
3 571 572 573
3 574 575 576
3 577 578 579
3 577 579 580
3 581 582 583
3 582 581 584
3 47 585 586
3 566 587 567
3 47 588 589
3 47 52 590
3 591 592 593
3 592 591 594
3 145 595 146
3 596 597 598
3 47 249 55
3 599 600 601
3 602 603 604
3 605 606 607
3 601 600 608
3 47 590 588
3 598 597 609
3 47 586 85
3 610 611 612
3 611 610 613
3 600 614 615
3 600 615 608
3 573 572 616
3 574 617 575
3 618 619 620
3 47 589 585
3 602 621 603
3 622 104 101
3 623 619 618
3 624 625 626
3 627 628 629
3 630 631 632
3 631 630 633
3 634 635 129
3 634 129 128
3 636 595 145
3 637 638 639
3 640 641 642
3 641 640 643
3 642 641 644
3 642 644 645
3 645 644 646
3 645 646 638
3 645 638 647
3 647 638 637
3 648 643 640
3 643 648 637
3 643 637 639
3 123 649 650
3 649 123 651
3 651 123 152
3 651 152 652
3 652 653 654
3 653 652 655
3 655 652 152
